<?xml version="1.0" ?>
<svg xmlns="http://www.w3.org/2000/svg" xmlns:ev="http://www.w3.org/2001/xml-events" xmlns:xlink="http://www.w3.org/1999/xlink" baseProfile="full" height="77px" version="1.1" viewBox="0 0 124 15.8" width="600px">
	<defs/>
	<path class="cls-2" d="M 120.03,15.8 L 117.08,15.8 L 117.08,14.8 L 120.03,14.8 L 120.03,15.8 M 115.11,15.8 L 112.16,15.8 L 112.16,14.8 L 115.11,14.8 L 115.11,15.8 M 110.19,15.8 L 107.24,15.8 L 107.24,14.8 L 110.19,14.8 L 110.19,15.8 M 105.27,15.8 L 102.32,15.8 L 102.32,14.8 L 105.27,14.8 L 105.27,15.8 M 100.35,15.8 L 97.39999999999999,15.8 L 97.39999999999999,14.8 L 100.35,14.8 L 100.35,15.8 M 95.42999999999999,15.8 L 92.47999999999999,15.8 L 92.47999999999999,14.8 L 95.42999999999999,14.8 L 95.42999999999999,15.8 M 90.50999999999999,15.8 L 87.55999999999999,15.8 L 87.55999999999999,14.8 L 90.50999999999999,14.8 L 90.50999999999999,15.8 M 85.58999999999999,15.8 L 82.63999999999999,15.8 L 82.63999999999999,14.8 L 85.58999999999999,14.8 L 85.58999999999999,15.8 M 80.66999999999999,15.8 L 77.71999999999998,15.8 L 77.71999999999998,14.8 L 80.66999999999999,14.8 L 80.66999999999999,15.8 M 75.74999999999999,15.8 L 72.79999999999998,15.8 L 72.79999999999998,14.8 L 75.74999999999999,14.8 L 75.74999999999999,15.8 M 70.82999999999998,15.8 L 67.87999999999998,15.8 L 67.87999999999998,14.8 L 70.82999999999998,14.8 L 70.82999999999998,15.8 M 65.90999999999998,15.8 L 62.95999999999998,15.8 L 62.95999999999998,14.8 L 65.90999999999998,14.8 L 65.90999999999998,15.8 M 60.98999999999998,15.8 L 58.03999999999998,15.8 L 58.03999999999998,14.8 L 60.98999999999998,14.8 L 60.98999999999998,15.8 M 56.06999999999998,15.8 L 53.119999999999976,15.8 L 53.119999999999976,14.8 L 56.06999999999998,14.8 L 56.06999999999998,15.8 M 51.14999999999998,15.8 L 48.199999999999974,15.8 L 48.199999999999974,14.8 L 51.14999999999998,14.8 L 51.14999999999998,15.8 M 46.229999999999976,15.8 L 43.27999999999997,15.8 L 43.27999999999997,14.8 L 46.229999999999976,14.8 L 46.229999999999976,15.8 M 41.309999999999974,15.8 L 38.35999999999997,15.8 L 38.35999999999997,14.8 L 41.309999999999974,14.8 L 41.309999999999974,15.8 M 36.38999999999997,15.8 L 33.43999999999997,15.8 L 33.43999999999997,14.8 L 36.38999999999997,14.8 L 36.38999999999997,15.8 M 31.46999999999997,15.8 L 28.51999999999997,15.8 L 28.51999999999997,14.8 L 31.46999999999997,14.8 L 31.46999999999997,15.8 M 26.54999999999997,15.8 L 23.59999999999997,15.8 L 23.59999999999997,14.8 L 26.54999999999997,14.8 L 26.54999999999997,15.8 M 21.629999999999967,15.8 L 18.679999999999968,15.8 L 18.679999999999968,14.8 L 21.629999999999967,14.8 L 21.629999999999967,15.8 M 16.709999999999965,15.8 L 13.759999999999966,15.8 L 13.759999999999966,14.8 L 16.709999999999965,14.8 L 16.709999999999965,15.8 M 11.789999999999965,15.8 L 8.839999999999964,15.8 L 8.839999999999964,14.8 L 11.789999999999964,14.8 L 11.789999999999964,15.8 L 11.789999999999965,15.8 M 6.8699999999999655,15.8 L 3.97,15.8 L 3.97,14.8 L 6.92,14.8 L 6.92,15.8 L 6.8699999999999655,15.8" fill="var(--main-color2)"/>
	<path class="cls-2" d="M 1.0,11.83 L 0.0,11.83 L 0.0,8.879999999999999 L 1.0,8.879999999999999 L 1.0,11.829999999999998 L 1.0,11.83 M 1.0,6.91 L 0.0,6.91 L 0.0,3.97 L 1.0,3.97 L 1.0,6.92 L 1.0,6.91" fill="var(--main-color2)"/>
	<path class="cls-2" d="M 120.03,1.0 L 117.08,1.0 L 117.08,0.0 L 120.03,0.0 L 120.03,1.0 M 115.11,1.0 L 112.16,1.0 L 112.16,0.0 L 115.11,0.0 L 115.11,1.0 M 110.19,1.0 L 107.24,1.0 L 107.24,0.0 L 110.19,0.0 L 110.19,1.0 M 105.27,1.0 L 102.32,1.0 L 102.32,0.0 L 105.27,0.0 L 105.27,1.0 M 100.35,1.0 L 97.39999999999999,1.0 L 97.39999999999999,0.0 L 100.35,0.0 L 100.35,1.0 M 95.42999999999999,1.0 L 92.47999999999999,1.0 L 92.47999999999999,0.0 L 95.42999999999999,0.0 L 95.42999999999999,1.0 M 90.50999999999999,1.0 L 87.55999999999999,1.0 L 87.55999999999999,0.0 L 90.50999999999999,0.0 L 90.50999999999999,1.0 M 85.58999999999999,1.0 L 82.63999999999999,1.0 L 82.63999999999999,0.0 L 85.58999999999999,0.0 L 85.58999999999999,1.0 M 80.66999999999999,1.0 L 77.71999999999998,1.0 L 77.71999999999998,0.0 L 80.66999999999999,0.0 L 80.66999999999999,1.0 M 75.74999999999999,1.0 L 72.79999999999998,1.0 L 72.79999999999998,0.0 L 75.74999999999999,0.0 L 75.74999999999999,1.0 M 70.82999999999998,1.0 L 67.87999999999998,1.0 L 67.87999999999998,0.0 L 70.82999999999998,0.0 L 70.82999999999998,1.0 M 65.90999999999998,1.0 L 62.95999999999998,1.0 L 62.95999999999998,0.0 L 65.90999999999998,0.0 L 65.90999999999998,1.0 M 60.98999999999998,1.0 L 58.03999999999998,1.0 L 58.03999999999998,0.0 L 60.98999999999998,0.0 L 60.98999999999998,1.0 M 56.06999999999998,1.0 L 53.119999999999976,1.0 L 53.119999999999976,0.0 L 56.06999999999998,0.0 L 56.06999999999998,1.0 M 51.14999999999998,1.0 L 48.199999999999974,1.0 L 48.199999999999974,0.0 L 51.14999999999998,0.0 L 51.14999999999998,1.0 M 46.229999999999976,1.0 L 43.27999999999997,1.0 L 43.27999999999997,0.0 L 46.229999999999976,0.0 L 46.229999999999976,1.0 M 41.309999999999974,1.0 L 38.35999999999997,1.0 L 38.35999999999997,0.0 L 41.309999999999974,0.0 L 41.309999999999974,1.0 M 36.38999999999997,1.0 L 33.43999999999997,1.0 L 33.43999999999997,0.0 L 36.38999999999997,0.0 L 36.38999999999997,1.0 M 31.46999999999997,1.0 L 28.51999999999997,1.0 L 28.51999999999997,0.0 L 31.46999999999997,0.0 L 31.46999999999997,1.0 M 26.54999999999997,1.0 L 23.59999999999997,1.0 L 23.59999999999997,0.0 L 26.54999999999997,0.0 L 26.54999999999997,1.0 M 21.629999999999967,1.0 L 18.679999999999968,1.0 L 18.679999999999968,0.0 L 21.629999999999967,0.0 L 21.629999999999967,1.0 M 16.709999999999965,1.0 L 13.759999999999966,1.0 L 13.759999999999966,0.0 L 16.709999999999965,0.0 L 16.709999999999965,1.0 M 11.789999999999965,1.0 L 8.839999999999964,1.0 L 8.839999999999964,0.0 L 11.789999999999964,0.0 L 11.789999999999964,1.0 L 11.789999999999965,1.0 M 6.8699999999999655,1.0 L 3.97,1.0 L 3.97,0.0 L 6.92,0.0 L 6.92,1.0 L 6.8699999999999655,1.0" fill="var(--main-color2)"/>
	<path class="cls-2" d="M 124.0,11.83 L 123.0,11.83 L 123.0,8.879999999999999 L 124.0,8.879999999999999 L 124.0,11.829999999999998 L 124.0,11.83 M 124.0,6.91 L 123.0,6.91 L 123.0,3.97 L 124.0,3.97 L 124.0,6.92 L 124.0,6.91" fill="var(--main-color2)"/>
	<path class="cls-2" d="M 121.43,13.27 L 118.41000000000001,13.27 L 118.41000000000001,12.52 L 121.43,12.52 L 121.43,13.27 M 116.39,13.27 L 113.37,13.27 L 113.37,12.52 L 116.39,12.52 L 116.39,13.27 M 111.35,13.27 L 108.33,13.27 L 108.33,12.52 L 111.35,12.52 L 111.35,13.27 M 106.30999999999999,13.27 L 103.28999999999999,13.27 L 103.28999999999999,12.52 L 106.30999999999999,12.52 L 106.30999999999999,13.27 M 101.26999999999998,13.27 L 98.24999999999999,13.27 L 98.24999999999999,12.52 L 101.26999999999998,12.52 L 101.26999999999998,13.27 M 96.22999999999998,13.27 L 93.20999999999998,13.27 L 93.20999999999998,12.52 L 96.22999999999998,12.52 L 96.22999999999998,13.27 M 91.18999999999997,13.27 L 88.16999999999997,13.27 L 88.16999999999997,12.52 L 91.18999999999997,12.52 L 91.18999999999997,13.27 M 86.14999999999996,13.27 L 83.12999999999997,13.27 L 83.12999999999997,12.52 L 86.14999999999996,12.52 L 86.14999999999996,13.27 M 81.10999999999996,13.27 L 78.08999999999996,13.27 L 78.08999999999996,12.52 L 81.10999999999996,12.52 L 81.10999999999996,13.27 M 76.06999999999995,13.27 L 73.04999999999995,13.27 L 73.04999999999995,12.52 L 76.06999999999995,12.52 L 76.06999999999995,13.27 M 71.02999999999994,13.27 L 68.00999999999995,13.27 L 68.00999999999995,12.52 L 71.02999999999994,12.52 L 71.02999999999994,13.27 M 65.98999999999994,13.27 L 62.969999999999935,13.27 L 62.969999999999935,12.52 L 65.98999999999994,12.52 L 65.98999999999994,13.27 M 60.94999999999994,13.27 L 57.929999999999936,13.27 L 57.929999999999936,12.52 L 60.94999999999994,12.52 L 60.94999999999994,13.27 M 55.90999999999994,13.27 L 52.88999999999994,13.27 L 52.88999999999994,12.52 L 55.90999999999994,12.52 L 55.90999999999994,13.27 M 50.86999999999994,13.27 L 47.84999999999994,13.27 L 47.84999999999994,12.52 L 50.86999999999994,12.52 L 50.86999999999994,13.27 M 45.82999999999994,13.27 L 42.80999999999994,13.27 L 42.80999999999994,12.52 L 45.82999999999994,12.52 L 45.82999999999994,13.27 M 40.78999999999994,13.27 L 37.76999999999994,13.27 L 37.76999999999994,12.52 L 40.78999999999994,12.52 L 40.78999999999994,13.27 M 35.74999999999994,13.27 L 32.72999999999994,13.27 L 32.72999999999994,12.52 L 35.74999999999994,12.52 L 35.74999999999994,13.27 M 30.709999999999944,13.27 L 27.689999999999944,13.27 L 27.689999999999944,12.52 L 30.709999999999944,12.52 L 30.709999999999944,13.27 M 25.669999999999945,13.27 L 22.649999999999945,13.27 L 22.649999999999945,12.52 L 25.669999999999945,12.52 L 25.669999999999945,13.27 M 20.629999999999946,13.27 L 17.609999999999946,13.27 L 17.609999999999946,12.52 L 20.629999999999946,12.52 L 20.629999999999946,13.27 M 15.589999999999947,13.27 L 12.569999999999947,13.27 L 12.569999999999947,12.52 L 15.589999999999947,12.52 L 15.589999999999947,13.27 M 10.549999999999947,13.27 L 7.529999999999948,13.27 L 7.529999999999948,12.52 L 10.549999999999947,12.52 L 10.549999999999947,13.27 M 5.509999999999947,13.27 L 2.57,13.27 L 2.57,12.52 L 5.59,12.52 L 5.59,13.27 L 5.509999999999947,13.27" fill="var(--main-color2)" id="path"/>
	<path class="cls-2" d="M 121.43,8.27 L 118.41000000000001,8.27 L 118.41000000000001,7.52 L 121.43,7.52 L 121.43,8.27 M 116.39,8.27 L 113.37,8.27 L 113.37,7.52 L 116.39,7.52 L 116.39,8.27 M 111.35,8.27 L 108.33,8.27 L 108.33,7.52 L 111.35,7.52 L 111.35,8.27 M 106.30999999999999,8.27 L 103.28999999999999,8.27 L 103.28999999999999,7.52 L 106.30999999999999,7.52 L 106.30999999999999,8.27 M 101.26999999999998,8.27 L 98.24999999999999,8.27 L 98.24999999999999,7.52 L 101.26999999999998,7.52 L 101.26999999999998,8.27 M 96.22999999999998,8.27 L 93.20999999999998,8.27 L 93.20999999999998,7.52 L 96.22999999999998,7.52 L 96.22999999999998,8.27 M 91.18999999999997,8.27 L 88.16999999999997,8.27 L 88.16999999999997,7.52 L 91.18999999999997,7.52 L 91.18999999999997,8.27 M 86.14999999999996,8.27 L 83.12999999999997,8.27 L 83.12999999999997,7.52 L 86.14999999999996,7.52 L 86.14999999999996,8.27 M 81.10999999999996,8.27 L 78.08999999999996,8.27 L 78.08999999999996,7.52 L 81.10999999999996,7.52 L 81.10999999999996,8.27 M 76.06999999999995,8.27 L 73.04999999999995,8.27 L 73.04999999999995,7.52 L 76.06999999999995,7.52 L 76.06999999999995,8.27 M 71.02999999999994,8.27 L 68.00999999999995,8.27 L 68.00999999999995,7.52 L 71.02999999999994,7.52 L 71.02999999999994,8.27 M 65.98999999999994,8.27 L 62.969999999999935,8.27 L 62.969999999999935,7.52 L 65.98999999999994,7.52 L 65.98999999999994,8.27 M 60.94999999999994,8.27 L 57.929999999999936,8.27 L 57.929999999999936,7.52 L 60.94999999999994,7.52 L 60.94999999999994,8.27 M 55.90999999999994,8.27 L 52.88999999999994,8.27 L 52.88999999999994,7.52 L 55.90999999999994,7.52 L 55.90999999999994,8.27 M 50.86999999999994,8.27 L 47.84999999999994,8.27 L 47.84999999999994,7.52 L 50.86999999999994,7.52 L 50.86999999999994,8.27 M 45.82999999999994,8.27 L 42.80999999999994,8.27 L 42.80999999999994,7.52 L 45.82999999999994,7.52 L 45.82999999999994,8.27 M 40.78999999999994,8.27 L 37.76999999999994,8.27 L 37.76999999999994,7.52 L 40.78999999999994,7.52 L 40.78999999999994,8.27 M 35.74999999999994,8.27 L 32.72999999999994,8.27 L 32.72999999999994,7.52 L 35.74999999999994,7.52 L 35.74999999999994,8.27 M 30.709999999999944,8.27 L 27.689999999999944,8.27 L 27.689999999999944,7.52 L 30.709999999999944,7.52 L 30.709999999999944,8.27 M 25.669999999999945,8.27 L 22.649999999999945,8.27 L 22.649999999999945,7.52 L 25.669999999999945,7.52 L 25.669999999999945,8.27 M 20.629999999999946,8.27 L 17.609999999999946,8.27 L 17.609999999999946,7.52 L 20.629999999999946,7.52 L 20.629999999999946,8.27 M 15.589999999999947,8.27 L 12.569999999999947,8.27 L 12.569999999999947,7.52 L 15.589999999999947,7.52 L 15.589999999999947,8.27 M 10.549999999999947,8.27 L 7.529999999999948,8.27 L 7.529999999999948,7.52 L 10.549999999999947,7.52 L 10.549999999999947,8.27 M 5.509999999999947,8.27 L 2.57,8.27 L 2.57,7.52 L 5.59,7.52 L 5.59,8.27 L 5.509999999999947,8.27" data-name="path" fill="var(--main-color2)" id="path-2"/>
	<path class="cls-2" d="M 124.0,15.8 L 122.0,15.8 L 122.0,14.8 L 123.0,14.8 L 123.0,13.8 L 124.0,13.8 L 124.0,15.8 L 124.0,15.8" fill="var(--main-color2)" points="124 15.8 122 15.8 122 14.8 123 14.8 123 13.8 124 13.8 124 15.8"/>
	<path class="cls-2" d="M 2.0,15.8 L 0.0,15.8 L 0.0,13.8 L 1.0,13.8 L 1.0,14.8 L 2.0,14.8 L 2.0,15.8 L 2.0,15.8" fill="var(--main-color2)" points="2 15.8 0 15.8 0 13.8 1 13.8 1 14.8 2 14.8 2 15.8"/>
	<path class="cls-2" d="M 1.0,2.0 L 0.0,2.0 L 0.0,0.0 L 2.0,0.0 L 2.0,1.0 L 1.0,1.0 L 1.0,2.0 L 1.0,2.0" fill="var(--main-color2)" points="1 2 0 2 0 0 2 0 2 1 1 1 1 2"/>
	<path class="cls-2" d="M 124.0,2.0 L 123.0,2.0 L 123.0,1.0 L 122.0,1.0 L 122.0,0.0 L 124.0,0.0 L 124.0,2.0 L 124.0,2.0" fill="var(--main-color2)" points="124 2 123 2 123 1 122 1 122 0 124 0 124 2"/>
	<path class="cls-1" d="M 0.0,0.0 L 124.0,0.0 L 124.0,15.8 L 0.0,15.8 L 0.0,0.0" fill="var(--main-color5)" height="15.8" id="WallBack" width="124"/>
</svg>
