<?xml version="1.0" ?>
<svg xmlns="http://www.w3.org/2000/svg" xmlns:ev="http://www.w3.org/2001/xml-events" xmlns:xlink="http://www.w3.org/1999/xlink" baseProfile="full" height="414px" version="1.1" viewBox="0 0 139.3 139.3" width="600px">
	<defs/>
	<path class="cls-4" d="M 3.81,0.74 C 23.82,4.13 38.6,20.279999999999998 38.6,39.300000000000004 L 39.31,39.300000000000004 C 39.3,19.89 24.22,3.4 3.81,0.0 L 3.81,0.74" id="OpeningLine"/>
	<path class="cls-2" d="M -17.75,17.75 L 21.549999999999997,17.75 L 21.549999999999997,21.56 L -17.75,21.56 L -17.75,17.75" height="3.81" id="WallBack" transform="translate(21.55 17.75) rotate(90)" width="39.3" x="-17.75" y="17.75"/>
	<path class="cls-1" d="M -17.5,18.05 L 21.299999999999997,18.05 L 21.299999999999997,21.26 L -17.5,21.26 L -17.5,18.05" height="3.21" id="GlassBack" transform="translate(21.55 17.75) rotate(90)" width="38.8" x="-17.5" y="18.05"/>
	<path class="cls-3" d="M -13.6,18.05 L 17.4,18.05 L 17.4,21.26 L -13.6,21.26 L -13.6,18.05" height="3.21" id="GlassInner" transform="translate(21.55 17.75) rotate(90)" width="31" x="-13.6" y="18.05"/>
</svg>
