<?xml version="1.0" ?>
<svg xmlns="http://www.w3.org/2000/svg" xmlns:ev="http://www.w3.org/2001/xml-events" xmlns:xlink="http://www.w3.org/1999/xlink" baseProfile="full" data-name="Ebene 2" height="600px" id="Ebene_2" version="1.1" viewBox="0 0 318.83 219.3" width="398px">
	<defs/>
	<path class="cls-2" d="M 237.01,6.38 C 235.89999999999998,5.15 234.0,5.06 232.76999999999998,6.17 C 231.54,7.28 231.45,9.18 232.55999999999997,10.41 C 234.21999999999997,12.24 235.86999999999998,14.11 237.47999999999996,15.969999999999999 C 238.06999999999996,16.66 238.90999999999997,17.009999999999998 239.74999999999997,17.009999999999998 C 240.43999999999997,17.009999999999998 241.13999999999996,16.77 241.70999999999998,16.279999999999998 C 242.95999999999998,15.199999999999998 243.09999999999997,13.299999999999997 242.01999999999998,12.049999999999997 C 240.38,10.159999999999997 238.7,8.249999999999996 237.01,6.379999999999997 L 237.01,6.38" fill="#51514e"/>
	<path class="cls-2" d="M 272.41,53.63 C 271.54,52.220000000000006 269.70000000000005,51.77 268.28000000000003,52.64 C 266.87,53.51 266.42,55.35 267.29,56.77 C 269.68,60.68000000000001 272.02000000000004,64.69 274.23,68.69 C 274.78000000000003,69.67999999999999 275.8,70.24 276.86,70.24 C 277.35,70.24 277.85,70.11999999999999 278.31,69.86 C 279.76,69.06 280.29,67.23 279.48,65.78 C 277.22,61.7 274.84000000000003,57.61 272.40000000000003,53.63 L 272.41,53.63" fill="#51514e"/>
	<path class="cls-2" d="M 291.33,89.52 C 290.28,87.16 289.18,84.78 288.06,82.44999999999999 C 287.35,80.94999999999999 285.56,80.32 284.06,81.02999999999999 C 282.56,81.73999999999998 281.93,83.52999999999999 282.64,85.02999999999999 C 283.72999999999996,87.32 284.81,89.64999999999999 285.84999999999997,91.96999999999998 C 286.68999999999994,93.85999999999999 287.51,95.73999999999998 288.29999999999995,97.60999999999999 C 288.78,98.74999999999999 289.9,99.43999999999998 291.05999999999995,99.43999999999998 C 291.44999999999993,99.43999999999998 291.84999999999997,99.35999999999999 292.22999999999996,99.19999999999999 C 293.75999999999993,98.54999999999998 294.46999999999997,96.78999999999999 293.81999999999994,95.26999999999998 C 293.00999999999993,93.35999999999999 292.17999999999995,91.43999999999998 291.31999999999994,89.51999999999998 L 291.33,89.52" fill="#51514e"/>
	<path class="cls-2" d="M 253.85,26.59 C 252.84,25.27 250.96,25.02 249.64,26.03 C 248.32,27.040000000000003 248.07,28.92 249.07999999999998,30.240000000000002 C 251.85999999999999,33.88 254.6,37.620000000000005 257.21999999999997,41.38 C 257.79999999999995,42.220000000000006 258.73999999999995,42.660000000000004 259.67999999999995,42.660000000000004 C 260.2699999999999,42.660000000000004 260.86999999999995,42.480000000000004 261.38999999999993,42.120000000000005 C 262.74999999999994,41.17 263.0799999999999,39.300000000000004 262.12999999999994,37.940000000000005 C 259.4599999999999,34.11000000000001 256.66999999999996,30.300000000000004 253.82999999999993,26.590000000000003 L 253.85,26.59" fill="#51514e"/>
	<path class="cls-2" d="M 312.94,157.92 C 312.05,153.32999999999998 311.04,148.70999999999998 309.95,144.17999999999998 C 309.56,142.56999999999996 307.94,141.57999999999998 306.33,141.96999999999997 C 304.71999999999997,142.35999999999996 303.72999999999996,143.97999999999996 304.12,145.58999999999997 C 305.19,150.02999999999997 306.18,154.56999999999996 307.05,159.06999999999996 C 307.33,160.49999999999997 308.58,161.49999999999997 309.99,161.49999999999997 C 310.18,161.49999999999997 310.37,161.47999999999996 310.57,161.43999999999997 C 312.2,161.11999999999998 313.26,159.54999999999998 312.94,157.91999999999996 L 312.94,157.92" fill="#51514e"/>
	<path class="cls-2" d="M 305.02,126.09 C 303.65999999999997,121.63000000000001 302.18,117.13 300.62,112.74000000000001 C 300.07,111.18 298.35,110.36000000000001 296.79,110.91000000000001 C 295.23,111.46000000000001 294.41,113.18 294.96000000000004,114.74000000000001 C 296.49,119.05000000000001 297.94000000000005,123.46000000000001 299.28000000000003,127.84 C 299.67,129.13 300.86,129.97 302.15000000000003,129.97 C 302.44000000000005,129.97 302.73,129.93 303.03000000000003,129.84 C 304.61,129.36 305.51000000000005,127.68 305.03000000000003,126.10000000000001 L 305.02,126.09" fill="#51514e"/>
	<path class="cls-2" d="M 314.83,193.64 C 316.47999999999996,193.48999999999998 317.7,192.02999999999997 317.55,190.38 C 317.13,185.73 316.6,181.03 315.98,176.41 C 315.76,174.77 314.25,173.62 312.61,173.84 C 310.97,174.06 309.82,175.57 310.04,177.21 C 310.65000000000003,181.74 311.17,186.36 311.58000000000004,190.92000000000002 C 311.72,192.48000000000002 313.03000000000003,193.65 314.56000000000006,193.65 C 314.65000000000003,193.65 314.74000000000007,193.65 314.83000000000004,193.64000000000001 L 314.83,193.64" fill="#51514e"/>
	<path class="cls-2" d="M 318.68,208.7 C 318.63,207.04 317.25,205.73999999999998 315.59000000000003,205.79999999999998 C 313.93,205.85 312.63000000000005,207.23999999999998 312.68,208.89 C 312.76,211.35 312.8,213.85 312.82,216.32 C 312.83,217.97 314.17,219.29999999999998 315.82,219.29999999999998 C 315.82,219.29999999999998 315.84,219.29999999999998 315.84,219.29999999999998 C 317.5,219.29 318.83,217.92999999999998 318.82,216.27999999999997 C 318.8,213.75999999999996 318.75,211.21999999999997 318.67,208.70999999999998 L 318.68,208.7" fill="#51514e"/>
	<path class="cls-3" d="M 202.2,22.25 C 201.98999999999998,22.02 201.64,21.99 201.41,22.2 L 197.45,25.77 L 193.23999999999998,21.09 C 192.92999999999998,20.74 192.39999999999998,20.71 192.05999999999997,21.01 L 189.15999999999997,23.62 L 193.93999999999997,28.93 L 189.97999999999996,32.5 C 189.74999999999997,32.7 189.73999999999995,33.06 189.94999999999996,33.29 L 191.21999999999997,34.699999999999996 L 203.47999999999996,23.659999999999997 L 202.20999999999995,22.249999999999996 L 202.2,22.25" fill="#908986"/>
	<path class="cls-1" d="M 175.51,19.51 L 179.94,19.51 L 179.94,53.4 C 179.94,53.87 179.56,54.25 179.09,54.25 L 176.37,54.25 C 175.9,54.25 175.52,53.87 175.52,53.4 L 175.52,19.51 L 175.52,19.51 L 175.51,19.51" fill="#3e3b34" transform="translate(86.21 -119.87) rotate(48 0 0)"/>
	<path class="cls-3" d="M 216.02,37.6 C 216.23000000000002,37.83 216.22,38.190000000000005 215.99,38.39 L 212.03,41.96 L 216.24,46.64 C 216.55,46.99 216.53,47.52 216.19,47.83 L 213.29,50.44 L 208.51,45.129999999999995 L 204.54999999999998,48.699999999999996 C 204.32,48.9 203.96999999999997,48.879999999999995 203.76,48.65 L 202.48999999999998,47.24 L 214.74999999999997,36.2 L 216.01999999999998,37.61 L 216.02,37.6" fill="#908986"/>
	<path class="cls-1" d="M 197.54,43.04 L 200.26,43.04 C 200.73,43.04 201.10999999999999,43.42 201.10999999999999,43.89 L 201.10999999999999,77.78 L 196.67999999999998,77.78 L 196.67999999999998,43.89 C 196.67999999999998,43.42 197.05999999999997,43.04 197.52999999999997,43.04 L 197.54,43.04" fill="#3e3b34" transform="translate(287.1 248.65) rotate(-132 0 0)"/>
	<path class="cls-4" d="M 114.41,-46.26 L 126.72000000000001,-46.26 A 2.27,2.27 0.0 0,1 128.99,-43.989999999999995 L 128.99,263.28000000000003 A 2.27,2.27 0.0 0,1 126.72000000000001,265.55 L 114.41,265.55 A 2.27,2.27 0.0 0,1 112.14,263.28000000000003 L 112.14,-43.989999999999995 A 2.27,2.27 0.0 0,1 114.41,-46.26" data-name="Door" fill="#ae6b43" height="311.81" id="Door-2" rx="2.27" ry="2.27" transform="translate(121.37 -53.32) rotate(48 0 0)" width="16.85" x="112.14" y="-46.26"/>
</svg>
