<?xml version="1.0" ?>
<svg xmlns="http://www.w3.org/2000/svg" xmlns:ev="http://www.w3.org/2001/xml-events" xmlns:xlink="http://www.w3.org/1999/xlink" baseProfile="full" height="64px" version="1.1" viewBox="0 0 78.6 8.21" width="600px">
	<defs/>
	<path class="cls-2" d="M 0.0,0.0 L 51.09,0.0 L 51.09,3.81 L 0.0,3.81 L 0.0,0.0" height="3.81" id="WallBack" transform="translate(51.09 3.81) rotate(180)" width="51.09" y="0"/>
	<path class="cls-1" d="M 0.33,0.3 L 50.769999999999996,0.3 L 50.769999999999996,3.51 L 0.33,3.51 L 0.33,0.3" height="3.21" id="GlassBack" transform="translate(51.09 3.81) rotate(180)" width="50.44" x=".33" y=".3"/>
	<path class="cls-3" d="M 5.4,0.3 L 45.699999999999996,0.3 L 45.699999999999996,3.51 L 5.4,3.51 L 5.4,0.3" height="3.21" id="GlassInner" transform="translate(51.09 3.81) rotate(180)" width="40.3" x="5.4" y=".3"/>
	<path class="cls-2" d="M 27.51,4.41 L 78.60000000000001,4.41 L 78.60000000000001,8.22 L 27.51,8.22 L 27.51,4.41" data-name="WallBack" height="3.81" id="WallBack-2" transform="translate(106.11 12.62) rotate(180)" width="51.09" x="27.51" y="4.41"/>
	<path class="cls-1" d="M 27.84,4.71 L 78.28,4.71 L 78.28,7.92 L 27.84,7.92 L 27.84,4.71" data-name="GlassBack" height="3.21" id="GlassBack-2" transform="translate(106.11 12.62) rotate(180)" width="50.44" x="27.84" y="4.71"/>
	<path class="cls-3" d="M 32.91,4.71 L 73.21,4.71 L 73.21,7.92 L 32.91,7.92 L 32.91,4.71" data-name="GlassInner" height="3.21" id="GlassInner-2" transform="translate(106.11 12.62) rotate(180)" width="40.3" x="32.91" y="4.71"/>
</svg>
