<svg xmlns="http://www.w3.org/2000/svg" height="662.8" width="717.8" preserveAspectRatio="none" viewBox="0 0 189.917 175.367"><path d="M153.99.5l19.997.2 15.427-.2v174.37H.494l.083-13.182.01-17.96C1.666 65.724 74.662 1.148 153.986.498z" stroke="#231f20" stroke-miterlimit="10" fill="#fff" stroke-width="1.5"/><path d="M90.38 152.69c-10.044 9.326-27.507 10.437-35.878 2.556l-3.827-3.602-8.874-9.783-3.635-3.846c-6.417-6.79-7.783-22.174 5.478-34.951l4.727-4.554 65.659-60.911 3.499-3.349c10.197-9.759 25.099-9.712 32.168-2.092l2.804 3.023 13.222 14.204 2.578 3.097c5.79 6.955 5.614 21.505-3.727 30.416l-3.427 3.27-66.7 62.746z" stroke="#231f20" stroke-miterlimit="10" fill="none" stroke-width="1.5"/><path fill="none" d="M57.602 135.15a4.216 4.216 0 1 1 5.96.213 4.216 4.216 0 0 1-5.96-.213"/><path d="M57.602 135.15a4.216 4.216 0 1 1 5.96.213 4.216 4.216 0 0 1-5.96-.213z" stroke="#231f20" stroke-miterlimit="10" fill="none" stroke-width="1.5"/></svg>