<svg xmlns="http://www.w3.org/2000/svg" width="348.718" height="662.245" viewBox="0 0 92.264999 175.21899" preserveAspectRatio="none"><path d="M.777.883h91.207v174.162H.777z" fill="#fff"/><path d="M.777.884h91.207v174.16H.777z" fill="none" stroke="#231f20" stroke-miterlimit="10"/><path d="M79.635 153.98c0 5.841-4.737 10.58-10.583 10.58H22.693c-5.844 0-10.583-4.739-10.583-10.58V21.763c0-5.842 4.74-10.58 10.583-10.58h46.359c5.846 0 10.583 4.738 10.583 10.58V153.98" fill="#fff"/><path d="M79.635 153.98c0 5.841-4.737 10.58-10.583 10.58H22.693c-5.844 0-10.583-4.739-10.583-10.58V21.764c0-5.843 4.74-10.58 10.583-10.58h46.359c5.846 0 10.583 4.737 10.583 10.58z" fill="none" stroke="#231f20" stroke-miterlimit="10"/><path d="M46.382 150.998a4.216 4.216 0 1 1 4.217-4.216 4.216 4.216 0 0 1-4.217 4.216" fill="#fff"/><path d="M46.382 150.998a4.216 4.216 0 1 1 4.217-4.216 4.216 4.216 0 0 1-4.217 4.216z" fill="none" stroke="#231f20" stroke-miterlimit="10"/></svg>