<svg xmlns="http://www.w3.org/2000/svg" width="160" height="178.133" viewBox="0 0 160 178.133" preserveAspectRatio="none"><path d="M159.479.268v177.59H.269V.268z" fill="#fff"/><path d="M159.479.268v177.59H.269V.268z" stroke-miterlimit="10" fill="none" stroke="#000" stroke-width=".536"/><path d="M20.23 26.89a10.672 10.688 0 0 1 10.686-10.688h27.2A10.672 10.688 0 0 1 68.787 26.89v9.887a10.672 10.68 0 0 1-10.671 10.681H30.908a10.672 10.688 0 0 1-10.677-10.68v-9.895" fill="#fff"/><path d="M20.23 26.89a10.672 10.688 0 0 1 10.686-10.688h27.2A10.672 10.688 0 0 1 68.787 26.89v9.887a10.672 10.68 0 0 1-10.671 10.681H30.908a10.672 10.688 0 0 1-10.677-10.68z" stroke-miterlimit="10" fill="none" stroke="#000" stroke-width=".536"/><path d="M88.741 26.89a10.672 10.688 0 0 1 10.671-10.688h27.215a10.672 10.68 0 0 1 10.671 10.681v9.895a10.672 10.688 0 0 1-10.67 10.687H99.411a10.672 10.688 0 0 1-10.67-10.687V26.89" fill="#fff"/><path d="M88.741 26.89a10.672 10.688 0 0 1 10.671-10.688h27.215a10.672 10.68 0 0 1 10.671 10.681v9.895a10.672 10.688 0 0 1-10.67 10.687H99.411a10.672 10.688 0 0 1-10.67-10.687z" stroke-miterlimit="10" fill="none" stroke="#000" stroke-width=".536"/><path d="M159.479 177.858v-58.764S135.774 71.957.269 47.458v130.407h159.21" fill="#fff"/><path d="M159.479 177.858v-58.764S135.774 71.957.269 47.458v130.407z" fill="none" stroke="#000" stroke-width=".536"/></svg>