<svg xmlns="http://www.w3.org/2000/svg" width="668.228" height="297.88mm" viewBox="0 0 107 180" preserveAspectRatio="none"><path d="M.869.865h103.286v178.261H.87z" fill="#fff"/><path d="M.869.865h103.286v178.261H.87z" stroke-miterlimit="10" fill="none" stroke="#231f20" stroke-width=".802"/><path d="M28.918 27.58c0-5.92 4.795-10.724 10.71-10.724h27.32a10.707 10.724 0 0 1 10.706 10.725v9.928a10.707 10.724 0 0 1-10.707 10.723H39.628A10.708 10.726 0 0 1 28.92 37.508V27.58" fill="#fff"/><path d="M28.918 27.58c0-5.92 4.795-10.724 10.71-10.724h27.32a10.707 10.724 0 0 1 10.706 10.725v9.928a10.707 10.724 0 0 1-10.707 10.723H39.628A10.708 10.726 0 0 1 28.92 37.508z" stroke-miterlimit="10" fill="none" stroke="#231f20" stroke-width=".802"/><path d="M106.175 179.121v-58.99S90.485 72.827.869 48.233v130.888h105.306" fill="#fff"/><path d="M106.175 179.121v-58.99S90.485 72.827.869 48.233v130.888z" stroke-miterlimit="10" fill="none" stroke="#231f20" stroke-width=".802"/></svg>