<svg xmlns="http://www.w3.org/2000/svg" width="210mm" height="297mm" viewBox="0 0 210 297" preserveAspectRatio="none"><path d="M34.634 7.494s-.475 10.95-6.425 8.093c-5.95-2.856-9.049-.951-11.19 3.809-2.142 4.76-10.948 8.57-7.614 12.616 3.33 4.046 1.84 7.38-.747 8.808s.03 5.474 1.936 6.903c1.902 1.428-.476 4.046-5.237 3.333-4.761-.715-7.856 3.331-1.428 5.236 6.426 1.904 7.14 4.762.95 7.142-6.19 2.38-5.237 5.712 0 6.902 5.24 1.191-4.997 7.38 2.856 7.617 7.856.239-4.284 8.332 2.383 7.142 6.665-1.19 6.9 3.57 3.806 8.568-3.091 5 9.998 7.856 9.998 7.856s5.475 6.666 13.332 4.761c7.856-1.904 4.522-2.38 8.33 6.902 3.81 9.285 9.046 10.95 12.854 6.19 3.809-4.76 6.19-4.76 11.187-3.332 5 1.428 6.668-2.382 6.668-5.714 0-3.332 1.902-5.473 7.378-2.141 5.475 3.333 4.047 3.333 6.428.476 2.378-2.858 8.567-2.619 8.567-4.285 0-1.667 4.286-.476 6.19 1.19 1.905 1.667 3.333-4.76 3.333-6.903s7.856-6.665 5.714-10.95c-2.144-4.284-4.023-9.283.368-12.379 4.391-3.093 5.105-4.521 2.963-7.855-2.142-3.332-.953-5.474-.475-9.759.475-4.284 1.903-5.475-.478-8.57-2.378-3.094 2.859-6.902 0-11.662-2.856-4.762-1.664-8.094-6.664-13.57-5-5.474-5.95-2.379-4.523-9.52 1.428-7.142-2.38-11.664-8.806-9.76-6.428 1.904-20.473 1.745-23.09-.437-2.62-2.181-7.857-5.514-9.76-2.897-1.905 2.62-7.856 9.761-13.806 3.57-5.953-6.187-9.998-.237-10.476 1.43-.474 1.667-4.522 1.19-4.522 1.19" fill="#fff"/><path d="M34.634 7.494s-.475 10.95-6.425 8.093c-5.95-2.856-9.049-.951-11.19 3.809-2.142 4.76-10.948 8.57-7.614 12.616 3.33 4.046 1.84 7.38-.747 8.808s.03 5.474 1.936 6.903c1.903 1.428-.476 4.046-5.237 3.333-4.761-.715-7.856 3.331-1.428 5.236 6.426 1.904 7.14 4.762.95 7.142-6.19 2.38-5.236 5.712 0 6.902 5.24 1.191-4.997 7.38 2.856 7.617 7.856.239-4.284 8.332 2.383 7.142 6.665-1.19 6.9 3.57 3.806 8.568-3.091 5 9.998 7.856 9.998 7.856s5.475 6.666 13.332 4.761c7.856-1.904 4.522-2.38 8.331 6.902 3.808 9.285 9.045 10.95 12.853 6.19 3.809-4.76 6.19-4.76 11.187-3.332 5 1.428 6.668-2.382 6.668-5.714 0-3.332 1.902-5.473 7.378-2.141 5.475 3.333 4.047 3.333 6.428.476 2.378-2.858 8.567-2.619 8.567-4.285 0-1.667 4.287-.476 6.19 1.19 1.905 1.667 3.333-4.76 3.333-6.903s7.856-6.665 5.714-10.95c-2.144-4.284-4.023-9.283.368-12.379 4.391-3.093 5.105-4.521 2.963-7.855-2.142-3.332-.953-5.474-.475-9.759.475-4.284 1.903-5.475-.478-8.57-2.378-3.094 2.859-6.902 0-11.662-2.856-4.762-1.663-8.094-6.664-13.57-5-5.474-5.95-2.379-4.523-9.52 1.428-7.142-2.38-11.664-8.806-9.76-6.428 1.904-20.473 1.745-23.09-.437-2.62-2.181-7.856-5.514-9.76-2.897-1.905 2.619-7.855 9.761-13.806 3.57-5.953-6.187-9.998-.237-10.476 1.43-.474 1.667-4.522 1.19-4.522 1.19z" fill="none" stroke="#231f20" stroke-width=".304" stroke-miterlimit="10"/><path d="M54.15 18.92s-10.946-2.141-9.758 6.903c1.192 9.046-2.141 3.572-8.33 1.906-6.187-1.667-11.903 5.475-6.902 10.472 4.998 4.998-1.907 9.76-5.952 9.76-4.048 0-10.234 6.427-3.095 10.474 7.14 4.046 9.523 7.378 4.998 11.663-4.521 4.285-7.378 8.332-1.188 9.284s13.33.475 8.57 8.092c-4.763 7.619-3.572 10 4.045 9.522 7.62-.475 15.71 1.905 17.613 5.238 1.906 3.332 5 10.711 10.952 3.332 5.952-7.38 14.76-11.902 20.946-9.045 6.19 2.857 14.283-2.38 11.903-10.236-2.38-7.855-4.763-15.71 2.856-14.757 7.617.951 11.188-.953 4.284-11.427-6.902-10.474-8.331-14.044-6.428-15.949 1.906-1.904 6.666-5.95 0-8.568-6.663-2.62-7.378-4.525-5.233-8.808 2.141-4.285-2.145-11.188-8.097-5.95-5.948 5.236-12.853 8.569-12.853.237s-9.758-8.094-11.187-3.332c-1.427 4.76-7.143 1.19-7.143 1.19" fill="#fff"/><path d="M54.15 18.92s-10.946-2.141-9.758 6.903c1.192 9.046-2.141 3.572-8.33 1.906-6.187-1.667-11.903 5.475-6.902 10.472 4.998 4.998-1.907 9.76-5.952 9.76-4.048 0-10.234 6.427-3.095 10.474 7.14 4.046 9.523 7.378 4.998 11.663-4.521 4.285-7.378 8.332-1.188 9.284s13.33.475 8.57 8.092c-4.763 7.619-3.572 10 4.045 9.522 7.62-.475 15.71 1.905 17.613 5.238 1.906 3.332 5 10.711 10.952 3.332 5.952-7.38 14.76-11.902 20.946-9.045 6.19 2.857 14.283-2.38 11.903-10.236-2.38-7.855-4.763-15.71 2.856-14.757 7.617.951 11.189-.953 4.284-11.427-6.902-10.474-8.331-14.044-6.428-15.949 1.906-1.904 6.666-5.95 0-8.568-6.663-2.62-7.378-4.525-5.233-8.808 2.141-4.285-2.145-11.188-8.097-5.95-5.948 5.236-12.852 8.569-12.852.237s-9.759-8.094-11.188-3.332c-1.427 4.76-7.143 1.19-7.143 1.19z" fill="none" stroke="#231f20" stroke-width=".304" stroke-miterlimit="10"/><path d="M53.841 37.41s17.07-11.168 13.697-1.685c-3.369 9.483 1.267 6.323 7.166 4.214 5.9-2.107 10.96 3.162 7.588 6.322-3.371 3.161-7.376 6.111-2.107 7.377 5.266 1.264 13.275 10.958 8.216 10.746-5.057-.21-15.382-2.74-9.48 2.74 5.9 5.479 4.214 15.595.209 12.434-4.005-3.16-15.173-5.967-12.857.599 2.32 6.566-6.533 13.098-10.746 6.775-4.215-6.32-4.005-14.33-11.166-12.222-7.166 2.109-12.435-3.792-7.588-8.85 4.845-5.057 7.164-8.008 2.738-13.488-4.423-5.479-2.529-8.85 3.374-9.904 5.9-1.054 1.052-10.957 10.956-5.057" fill="#fff"/><path d="M53.841 37.41s17.07-11.168 13.697-1.685c-3.369 9.483 1.267 6.323 7.166 4.214 5.9-2.107 10.96 3.162 7.588 6.322-3.371 3.161-7.376 6.111-2.107 7.377 5.266 1.264 13.275 10.958 8.216 10.746-5.057-.21-15.382-2.74-9.48 2.74 5.9 5.479 4.214 15.595.209 12.434-4.005-3.16-15.173-5.967-12.857.599 2.32 6.566-6.533 13.098-10.746 6.775-4.215-6.32-4.005-14.33-11.166-12.222-7.166 2.109-12.435-3.792-7.588-8.85 4.845-5.057 7.164-8.008 2.738-13.488-4.423-5.479-2.528-8.85 3.374-9.904 5.9-1.054 1.052-10.957 10.956-5.057z" fill="none" stroke="#231f20" stroke-width=".304" stroke-miterlimit="10"/><path d="M25.113 70.098s-9.044-3.552-3.094-9.394c5.95-5.84-2.516-7.525 1.903-11.077 4.42-3.553-5.236-7.856 1.19-12.378 6.43-4.523 4.333-12.378 9.785-11.665m18.542 11.904s8.568-5 14.283 1.427M51.06 17.255s7.614 3.808 13.092 0c5.473-3.81 4.521-.424 5.711 1.692 1.19 2.116 4.999-6.332 8.808-3.417 3.808 2.915 5.711.324 5.95 3.761m5.716 12.959s5.95 5.475 2.14 10.712m5.476 3.095s9.52 5.712 3.806 8.57c-5.712 2.855-4.52 4.997-2.617 9.283 1.906 4.284.9 3.093-1.574 6.188m-52.46-18.805s-2.62 4.999 0 6.784c2.618 1.786-.24-.356 0 6.308.238 6.666.475 7.856 3.57 10.236m19.044-19.042s-.713.952-3.095 4.284M56.771 72.48s.951 6.902 5.475 5.236c4.524-1.666 5.237-2.338 8.807.26 3.573 2.596 4.048-.023 5.95-3.355 1.906-3.332 6.192-3.808 5.716-5.712m-.953-13.33s3.095 4.285 0 7.378M32.494 79.029s-.477 11.064 3.57 8.685c4.046-2.382 1.478 4.522 7.88 4.76 6.401.238 3.543 9.284 11.162 7.379 7.616-1.905 8.331-3.57 12.616-.952s4.759.477 6.189-3.095c1.43-3.57 3.701-4.283 9.23-1.666 5.528 2.619 8.227 2.856 8.9-2.381.675-5.235 6.878-9.045 8.538-9.52" fill="#fff" stroke="#231f20" stroke-width=".304" stroke-miterlimit="10"/></svg>