<svg xmlns="http://www.w3.org/2000/svg" width="604.316" height="457.765" viewBox="0 0 45.683428 19.574464" preserveAspectRatio="none"><path d="M45.28.325v18.881H.403V.325z" fill="#fff"/><path d="M45.29.325v18.882H.417V.325z" stroke-miterlimit="10" fill="none" stroke="#231f20" stroke-width=".585"/><path d="M32.565 9.767c0 2.818-4.353 5.101-9.724 5.101-5.368 0-9.724-2.283-9.724-5.101 0-2.817 4.356-5.101 9.724-5.101 5.371 0 9.724 2.284 9.724 5.1" fill="#fff"/><path d="M32.577 9.768c0 2.818-4.353 5.101-9.724 5.101-5.367 0-9.723-2.283-9.723-5.101 0-2.817 4.356-5.102 9.723-5.102 5.371 0 9.724 2.285 9.724 5.102z" stroke-miterlimit="10" fill="none" stroke="#231f20" stroke-width=".585"/><path d="M27.567 9.765c0 1.37-2.117 2.48-4.728 2.48-2.61 0-4.723-1.11-4.723-2.48 0-1.37 2.114-2.48 4.723-2.48 2.611 0 4.728 1.11 4.728 2.48" fill="#fff"/><path d="M27.579 9.765c0 1.37-2.117 2.48-4.728 2.48-2.61 0-4.723-1.11-4.723-2.48 0-1.369 2.114-2.48 4.723-2.48 2.611 0 4.728 1.111 4.728 2.48z" stroke-miterlimit="10" fill="none" stroke="#231f20" stroke-width=".585"/></svg>