<svg xmlns="http://www.w3.org/2000/svg" width="329.779" height="89.82mm" viewBox="0 0 87.253998 89.82" preserveAspectRatio="none"><path d="M25.59 5.752s-.347 7.987-4.69 5.904c-4.344-2.084-6.603-.695-8.166 2.778-1.565 3.48-7.994 6.259-5.56 9.21 2.432 2.952 1.345 5.383-.544 6.423-1.89 1.05.022 4.002 1.412 5.044 1.39 1.042-.347 2.952-3.823 2.431-3.474-.521-5.732 2.43-1.041 3.82 4.69 1.389 5.211 3.48.694 5.217-4.516 1.736-3.821 4.167 0 5.035 3.823.868-3.647 5.383 2.085 5.557 5.733.182-3.126 6.085 1.738 5.217 4.864-.868 5.04 2.604 2.78 6.25-2.26 3.655 7.297 5.739 7.297 5.739s3.995 4.862 9.73 3.473c5.733-1.39 3.3-1.737 6.08 5.043 2.78 6.77 6.603 7.986 9.38 4.513 2.782-3.472 4.518-3.472 8.167-2.43 3.65 1.041 4.866-1.744 4.866-4.175 0-2.43 1.39-3.993 5.385-1.562 3.997 2.43 2.955 2.43 4.691.347 1.738-2.084 6.254-1.91 6.254-3.126 0-1.215 3.128-.347 4.518.869 1.39 1.215 2.433-3.473 2.433-5.036 0-1.562 5.732-4.87 4.17-7.995-1.564-3.126-2.936-6.772.27-9.037 3.204-2.257 3.724-3.3 2.162-5.73-1.564-2.43-.695-3.994-.349-7.127.349-3.126 1.39-3.994-.346-6.251-1.737-2.257 2.084-5.035 0-8.515-2.085-3.473-1.216-5.904-4.866-9.906-3.647-3.993-4.343-1.736-3.3-6.945C78.06 5.578 75.28 2.271 70.59 3.66c-4.691 1.389-14.942 1.273-16.854-.314-1.91-1.596-5.732-4.027-7.123-2.117-1.389 1.91-5.733 7.127-10.076 2.605-4.344-4.515-7.297-.174-7.645 1.041-.348 1.224-3.301.877-3.301.877" fill="#fff"/><path d="M25.59 5.752s-.347 7.987-4.69 5.904c-4.344-2.084-6.603-.695-8.166 2.778-1.565 3.48-7.994 6.259-5.56 9.21 2.432 2.952 1.345 5.383-.544 6.423-1.89 1.05.022 4.002 1.412 5.044 1.39 1.042-.347 2.952-3.823 2.431-3.474-.521-5.732 2.43-1.041 3.82 4.69 1.389 5.211 3.48.694 5.217-4.516 1.736-3.821 4.167 0 5.035 3.823.868-3.647 5.383 2.085 5.557 5.733.182-3.126 6.085 1.738 5.217 4.864-.868 5.04 2.604 2.78 6.25-2.26 3.655 7.297 5.739 7.297 5.739s3.995 4.862 9.73 3.473c5.733-1.39 3.3-1.737 6.08 5.043 2.78 6.77 6.603 7.986 9.38 4.513 2.782-3.472 4.518-3.472 8.167-2.43 3.65 1.041 4.866-1.744 4.866-4.175 0-2.43 1.39-3.993 5.385-1.562 3.997 2.43 2.955 2.43 4.691.347 1.738-2.084 6.254-1.91 6.254-3.126 0-1.215 3.128-.347 4.518.869 1.39 1.215 2.433-3.473 2.433-5.036 0-1.562 5.732-4.87 4.17-7.995-1.564-3.126-2.936-6.772.27-9.037 3.204-2.257 3.724-3.3 2.162-5.73-1.564-2.43-.695-3.994-.349-7.127.349-3.126 1.39-3.994-.346-6.251-1.737-2.257 2.084-5.035 0-8.515-2.085-3.473-1.216-5.904-4.866-9.906-3.647-3.993-4.343-1.736-3.3-6.945C78.06 5.578 75.28 2.271 70.59 3.66c-4.691 1.389-14.942 1.273-16.854-.314-1.91-1.596-5.732-4.027-7.123-2.117-1.389 1.91-5.733 7.127-10.076 2.605-4.344-4.515-7.297-.174-7.645 1.041-.348 1.224-3.301.877-3.301.877z" fill="none" stroke="#231f20" stroke-width="1.058" stroke-miterlimit="10"/><path d="M39.836 14.093s-7.992-1.566-7.123 5.038c.87 6.597-1.563 2.6-6.081 1.387-4.517-1.214-8.686 3.996-5.038 7.646 3.647 3.644-1.39 7.123-4.344 7.123-2.953 0-7.472 4.685-2.259 7.64 5.212 2.954 6.95 5.39 3.65 8.515-3.3 3.127-5.387 6.081-.87 6.779 4.517.697 9.73.344 6.255 5.907-3.474 5.555-2.606 7.294 2.953 6.95 5.56-.353 11.467 1.386 12.857 3.824 1.39 2.428 3.65 7.81 7.993 2.428 4.342-5.383 10.772-8.69 15.288-6.605 4.517 2.092 10.425-1.732 8.688-7.466-1.738-5.736-3.475-11.47 2.084-10.774 5.56.698 8.166-.697 3.128-8.337-5.04-7.646-6.083-10.257-4.692-11.643 1.39-1.386 4.864-4.34 0-6.252-4.865-1.911-5.386-3.306-3.821-6.433 1.563-3.126-1.565-8.163-5.908-4.34-4.344 3.824-9.382 6.252-9.382.172s-7.123-5.908-8.165-2.428c-1.043 3.47-5.213.87-5.213.87" fill="#fff"/><path d="M39.836 14.093s-7.992-1.566-7.123 5.038c.87 6.597-1.563 2.6-6.081 1.387-4.517-1.214-8.686 3.996-5.038 7.646 3.647 3.644-1.39 7.123-4.344 7.123-2.953 0-7.472 4.685-2.259 7.64 5.212 2.954 6.95 5.39 3.65 8.515-3.3 3.127-5.387 6.081-.87 6.779 4.517.697 9.73.344 6.255 5.907-3.474 5.555-2.606 7.294 2.953 6.95 5.56-.353 11.467 1.386 12.857 3.824 1.39 2.428 3.65 7.81 7.993 2.428 4.342-5.383 10.772-8.69 15.288-6.605 4.517 2.092 10.425-1.732 8.688-7.466-1.738-5.736-3.475-11.47 2.084-10.774 5.56.698 8.166-.697 3.128-8.337-5.04-7.646-6.083-10.257-4.692-11.643 1.39-1.386 4.864-4.34 0-6.252-4.865-1.911-5.386-3.306-3.821-6.433 1.563-3.126-1.565-8.163-5.908-4.34-4.344 3.824-9.382 6.252-9.382.172s-7.123-5.908-8.165-2.428c-1.043 3.47-5.213.87-5.213.87z" fill="none" stroke="#231f20" stroke-width="1.058" stroke-miterlimit="10"/><path d="M39.609 27.587s12.459-8.152 9.996-1.23c-2.46 6.923.924 4.61 5.23 3.078 4.306-1.54 7.998 2.306 5.538 4.611-2.461 2.304-5.384 4.462-1.538 5.382 3.845.921 9.69 7.998 5.998 7.844-3.69-.154-11.229-1.995-6.921 2.004 4.306 3.999 3.076 11.378.154 9.073-2.924-2.306-11.075-4.357-9.383.44 1.692 4.788-4.768 9.553-7.844 4.944-3.077-4.62-2.924-10.458-8.15-8.919-5.233 1.531-9.076-2.77-5.54-6.467 3.537-3.689 5.23-5.84 2-9.84-3.23-3.998-1.846-6.457 2.462-7.231 4.306-.765.769-7.998 7.998-3.689" fill="#fff"/><path d="M39.609 27.587s12.459-8.152 9.996-1.23c-2.46 6.923.924 4.61 5.23 3.078 4.306-1.54 7.998 2.306 5.538 4.611-2.461 2.304-5.384 4.462-1.538 5.382 3.845.921 9.69 7.998 5.998 7.844-3.69-.154-11.229-1.995-6.921 2.004 4.306 3.999 3.076 11.378.154 9.073-2.924-2.306-11.075-4.357-9.383.44 1.692 4.788-4.768 9.553-7.844 4.944-3.077-4.62-2.924-10.458-8.15-8.919-5.233 1.531-9.076-2.77-5.539-6.467 3.536-3.689 5.23-5.84 2-9.84-3.23-3.998-1.847-6.457 2.46-7.231 4.307-.765.77-7.998 7.999-3.689z" fill="none" stroke="#231f20" stroke-width="1.058" stroke-miterlimit="10"/><path d="M18.64 51.444s-6.602-2.593-2.26-6.855c4.346-4.264-1.833-5.494 1.392-8.086 3.225-2.59-3.822-5.738.869-9.039 4.69-3.3 3.162-9.031 7.14-8.51m13.534 8.684s6.254-3.644 10.424 1.047m-12.161-15.81s5.559 2.773 9.555 0c3.996-2.782 3.302-.311 4.17 1.23.87 1.543 3.649-4.619 6.429-2.494 2.78 2.125 4.17.237 4.343 2.75m4.17 9.454s4.344 3.994 1.564 7.818m3.996 2.263s6.949 4.172 2.778 6.252c-4.168 2.086-3.3 3.649-1.91 6.774 1.39 3.134.656 2.264-1.147 4.52M33.235 37.714s-1.912 3.646 0 4.948c1.91 1.31-.173-.257 0 4.61.174 4.86.348 5.727 2.606 7.47m13.899-13.9s-.52.698-2.258 3.126m-5.734 9.212s.694 5.035 3.996 3.818c3.302-1.216 3.823-1.701 6.428.19 2.606 1.894 2.954-.015 4.344-2.448 1.39-2.435 4.517-2.777 4.17-4.169m-.695-9.729s2.258 3.126 0 5.386M24.026 57.96s-.347 8.076 2.607 6.343c2.952-1.74 1.08 3.298 5.752 3.472 4.672.173 2.587 6.777 8.146 5.385 5.56-1.392 6.081-2.61 9.21-.696 3.126 1.914 3.473.349 4.516-2.253 1.044-2.61 2.703-3.132 6.738-1.218 4.033 1.906 6.005 2.08 6.496-1.74.492-3.82 5.018-6.604 6.23-6.952" fill="#fff" stroke="#231f20" stroke-width="1.058" stroke-miterlimit="10"/></svg>