<svg xmlns="http://www.w3.org/2000/svg" width="492.786" height="691.049" viewBox="0 0 130.383 182.84" preserveAspectRatio="none"><path d="M48.696 182.304l-48.136.007L.53.555 129.833.53l.02 119.555s-3.652 57.217-81.158 62.22" fill="#fff"/><path d="M48.696 182.304l-48.136.007L.53.554 129.833.53l.02 119.554s-3.652 57.218-81.158 62.22z" fill="none" stroke="#231f20" stroke-width="1.058" stroke-miterlimit="10"/><path d="M10.847 64.555l.018 103.264 40.461-.007c65.149-4.201 68.218-52.296 68.218-52.296l-.017-100.489-72.19.012s6.18 40.192-36.49 49.516" fill="#fff"/><path d="M10.847 64.555l.018 103.264 40.461-.006c65.149-4.202 68.218-52.297 68.218-52.297l-.017-100.49-72.19.013s6.18 40.192-36.49 49.516z" fill="none" stroke="#231f20" stroke-width="1.058" stroke-miterlimit="10"/><path d="M49.385 61.854a4.215 4.215 0 1 1 0-8.432 4.215 4.215 0 1 1 0 8.432" fill="#fff"/><path d="M49.385 61.854a4.215 4.215 0 1 1 0-8.432 4.215 4.215 0 1 1 0 8.432z" fill="none" stroke="#231f20" stroke-width="1.058" stroke-miterlimit="10"/></svg>