<svg xmlns="http://www.w3.org/2000/svg" width="308.202" height="192.276" viewBox="0 0 81.544998 50.873001" preserveAspectRatio="none"><path d="M81.012 26.097c0 13.392-18.015 24.247-40.241 24.247C18.55 50.344.529 39.489.529 26.097L12.233.53h56.095l12.684 25.568" fill="#fff"/><path d="M81.012 26.097c0 13.392-18.015 24.247-40.241 24.247C18.55 50.344.529 39.489.529 26.097L12.233.53h56.095z" fill="none" stroke="#231f20" stroke-width="1.058" stroke-miterlimit="10"/><path d="M72.414 25.44c0 10.75-14.463 19.464-32.306 19.464-17.838 0-32.3-8.713-32.3-19.463 0-10.753 14.462-19.467 32.3-19.467 17.843 0 32.306 8.714 32.306 19.467" fill="#fff"/><path d="M72.414 25.44c0 10.75-14.463 19.464-32.306 19.464-17.838 0-32.3-8.713-32.3-19.463 0-10.753 14.462-19.467 32.3-19.467 17.843 0 32.306 8.714 32.306 19.467z" fill="none" stroke="#231f20" stroke-width="1.058" stroke-miterlimit="10"/><path d="M44.327 25.438a4.22 4.22 0 0 1-4.22 4.217 4.22 4.22 0 0 1-4.213-4.217 4.22 4.22 0 0 1 4.214-4.218 4.22 4.22 0 0 1 4.22 4.218" fill="#fff"/><path d="M44.327 25.438a4.221 4.221 0 0 1-4.22 4.217 4.22 4.22 0 0 1-4.213-4.217 4.22 4.22 0 0 1 4.214-4.218 4.22 4.22 0 0 1 4.22 4.218z" fill="none" stroke="#231f20" stroke-width="1.058" stroke-miterlimit="10"/></svg>