<svg xmlns="http://www.w3.org/2000/svg" width="338.649" height="264.522" viewBox="0 0 89.600998 69.987999" preserveAspectRatio="none"><path d="M89.072.53v68.929H.53V.529h88.543" fill="#fff"/><path d="M89.072.53v68.929H.53V.529z" fill="none" stroke="#231f20" stroke-width="1.058" stroke-miterlimit="10"/><path d="M48.155 14.902a5.657 5.657 0 0 1 5.657 5.659v36.25a5.657 5.657 0 0 1-5.657 5.66H14.814a5.661 5.661 0 0 1-5.657-5.66v-36.25a5.661 5.661 0 0 1 5.657-5.66h33.341" fill="#fff"/><path d="M48.155 14.902a5.657 5.657 0 0 1 5.657 5.659v36.25a5.657 5.657 0 0 1-5.657 5.66H14.814a5.661 5.661 0 0 1-5.657-5.66v-36.25a5.661 5.661 0 0 1 5.657-5.66z" fill="none" stroke="#231f20" stroke-width="1.058" stroke-miterlimit="10"/><path d="M31.48 35.988a2.7 2.7 0 1 1 0 5.4 2.699 2.699 0 0 1-2.692-2.702 2.698 2.698 0 0 1 2.692-2.698" fill="#fff"/><path d="M31.48 35.988a2.7 2.7 0 1 1 0 5.4 2.699 2.699 0 0 1-2.692-2.702 2.698 2.698 0 0 1 2.692-2.698z" fill="none" stroke="#231f20" stroke-width="1.058" stroke-miterlimit="10"/><path d="M65.958 14.9c.553 0 .999.47.999 1.048v43.31c0 .583-.446 1.052-.999 1.052-.553 0-.999-.47-.999-1.051V15.948c0-.579.446-1.047.999-1.047" fill="#fff"/><path d="M65.958 14.9c.553 0 .999.47.999 1.048v43.31c0 .583-.446 1.052-.999 1.052-.553 0-.999-.47-.999-1.051V15.948c0-.579.446-1.047.999-1.047z" fill="none" stroke="#231f20" stroke-width="1.058" stroke-miterlimit="10"/><path d="M60.965 14.902c.55 0 .995.47.995 1.048v43.31c0 .583-.444 1.052-.995 1.052-.556 0-1-.47-1-1.051V15.95c0-.579.444-1.048 1-1.048" fill="#fff"/><path d="M60.965 14.902c.55 0 .995.47.995 1.048v43.31c0 .583-.444 1.052-.995 1.052-.556 0-1-.47-1-1.051V15.95c0-.579.444-1.048 1-1.048z" fill="none" stroke="#231f20" stroke-width="1.058" stroke-miterlimit="10"/><path d="M70.945 14.901c.556 0 .997.47.997 1.048v43.31c0 .583-.441 1.052-.997 1.052-.555 0-.996-.47-.996-1.051V15.95c0-.58.441-1.049.996-1.049" fill="#fff"/><path d="M70.945 14.901c.556 0 .997.47.997 1.048v43.31c0 .583-.441 1.052-.997 1.052-.555 0-.996-.47-.996-1.051V15.95c0-.58.441-1.049.996-1.049z" fill="none" stroke="#231f20" stroke-width="1.058" stroke-miterlimit="10"/><path d="M75.932 14.902c.551 0 1.001.469 1.001 1.047v43.31c0 .583-.45 1.052-1 1.052-.545 0-.995-.469-.995-1.051V15.95c0-.58.45-1.048.994-1.048" fill="#fff"/><path d="M75.932 14.902c.551 0 1.001.469 1.001 1.047v43.31c0 .583-.45 1.052-1 1.052-.545 0-.995-.469-.995-1.051V15.95c0-.58.45-1.048.994-1.048z" fill="none" stroke="#231f20" stroke-width="1.058" stroke-miterlimit="10"/><path d="M80.926 14.9c.553 0 .999.47.999 1.048v43.31c0 .583-.446 1.053-1 1.053-.546 0-.998-.47-.998-1.052v-43.31c0-.58.452-1.048.999-1.048" fill="#fff"/><path d="M80.926 14.9c.553 0 .999.47.999 1.048v43.31c0 .583-.446 1.053-1 1.053-.546 0-.998-.47-.998-1.052v-43.31c0-.58.452-1.048.999-1.048z" fill="none" stroke="#231f20" stroke-width="1.058" stroke-miterlimit="10"/></svg>