<svg xmlns="http://www.w3.org/2000/svg" width="210mm" height="297mm" viewBox="0 0 210 297" preserveAspectRatio="none"><path d="M30.16 6.713a5.654 5.654 0 0 0-5.657-5.656H6.378A5.656 5.656 0 0 0 .719 6.713V83.22a5.656 5.656 0 0 0 5.659 5.655h18.125a5.654 5.654 0 0 0 5.657-5.655V6.713" fill="#fff"/><path d="M30.16 6.713a5.654 5.654 0 0 0-5.657-5.656H6.378A5.656 5.656 0 0 0 .719 6.713V83.22a5.656 5.656 0 0 0 5.659 5.655h18.125a5.654 5.654 0 0 0 5.657-5.655z" fill="none" stroke="#231f20" stroke-width="1.058" stroke-miterlimit="10"/><path d="M129.708 6.713a5.658 5.658 0 0 0-5.655-5.656h-18.126a5.66 5.66 0 0 0-5.663 5.656V83.22a5.66 5.66 0 0 0 5.663 5.655h18.126a5.658 5.658 0 0 0 5.655-5.655V6.713" fill="#fff"/><path d="M129.708 6.713a5.658 5.658 0 0 0-5.655-5.656h-18.126a5.66 5.66 0 0 0-5.664 5.656V83.22a5.66 5.66 0 0 0 5.664 5.655h18.126a5.658 5.658 0 0 0 5.655-5.655z" fill="none" stroke="#231f20" stroke-width="1.058" stroke-miterlimit="10"/><path d="M30.161 28.007c0-3.13 2.045-5.665 4.573-5.665h60.964c2.52 0 4.566 2.536 4.566 5.665v53.55c0 3.122-2.046 5.657-4.566 5.657H34.734c-2.528 0-4.573-2.535-4.573-5.656v-53.55" fill="#fff"/><path d="M30.161 28.007c0-3.13 2.045-5.665 4.573-5.665h60.964c2.52 0 4.565 2.536 4.565 5.665v53.551c0 3.121-2.045 5.656-4.565 5.656H34.734c-2.528 0-4.573-2.535-4.573-5.656z" fill="none" stroke="#231f20" stroke-width="1.058" stroke-miterlimit="10"/><path d="M100.265 1.054v21.291H30.16V1.055z" fill="#fff"/><path d="M100.265 1.054v21.291H30.16V1.055z" fill="none" stroke="#231f20" stroke-width="1.058" stroke-miterlimit="10"/></svg>