<svg xmlns="http://www.w3.org/2000/svg" width="210mm" height="297mm" viewBox="0 0 210 297" preserveAspectRatio="none"><path d="M22.626.916h133.809v17.19H22.626z" fill="#fff"/><path d="M22.626.916h133.809v17.19H22.626z" fill="none" stroke="#231f20" stroke-width=".793" stroke-miterlimit="10"/><path d="M.578 5.157A4.237 4.237 0 0 1 4.813.916h13.574a4.238 4.238 0 0 1 4.242 4.241v57.305a4.237 4.237 0 0 1-4.242 4.236H4.813a4.235 4.235 0 0 1-4.235-4.236V5.157" fill="#fff"/><path d="M.578 5.157A4.237 4.237 0 0 1 4.813.916h13.574a4.238 4.238 0 0 1 4.242 4.241v57.305a4.237 4.237 0 0 1-4.242 4.236H4.813a4.235 4.235 0 0 1-4.235-4.236z" fill="none" stroke="#231f20" stroke-width=".793" stroke-miterlimit="10"/><path d="M178.492 5.154a4.235 4.235 0 0 0-4.238-4.238h-13.578a4.235 4.235 0 0 0-4.238 4.238v57.303a4.24 4.24 0 0 0 4.238 4.239h13.578a4.24 4.24 0 0 0 4.238-4.239V5.154" fill="#fff"/><path d="M178.492 5.154a4.235 4.235 0 0 0-4.238-4.238h-13.578a4.235 4.235 0 0 0-4.238 4.238v57.303a4.24 4.24 0 0 0 4.238 4.239h13.578a4.24 4.24 0 0 0 4.238-4.239z" fill="none" stroke="#231f20" stroke-width=".793" stroke-miterlimit="10"/><path d="M91.397 22.348a4.24 4.24 0 0 1 4.241-4.242H152.2a4.238 4.238 0 0 1 4.236 4.242v40.11A4.238 4.238 0 0 1 152.2 66.7H95.64a4.24 4.24 0 0 1-4.242-4.242v-40.11" fill="#fff"/><path d="M91.397 22.348a4.24 4.24 0 0 1 4.241-4.242H152.2a4.238 4.238 0 0 1 4.236 4.242v40.11A4.238 4.238 0 0 1 152.2 66.7H95.64a4.24 4.24 0 0 1-4.242-4.242z" fill="none" stroke="#231f20" stroke-width=".793" stroke-miterlimit="10"/><path d="M22.632 22.347c0-2.342 2.006-4.243 4.48-4.243h59.812c2.473 0 4.48 1.9 4.48 4.243v40.111c0 2.342-2.007 4.237-4.48 4.237H27.112c-2.474 0-4.48-1.895-4.48-4.237V22.347" fill="#fff"/><path d="M22.632 22.347c0-2.342 2.006-4.243 4.48-4.243h59.812c2.473 0 4.48 1.9 4.48 4.243v40.111c0 2.342-2.007 4.237-4.48 4.237H27.112c-2.474 0-4.48-1.895-4.48-4.237z" fill="none" stroke="#231f20" stroke-width=".793" stroke-miterlimit="10"/></svg>