<svg xmlns="http://www.w3.org/2000/svg" width="375.761" height="285.415" viewBox="0 0 99.419999 75.515999" preserveAspectRatio="none"><path d="M-39.105-29.376H144.32v134.948l-183.424-.402V-29.376" fill="#fff"/><path d="M.3 75.516c-.167 0-.3-.166-.3-.372V.372C0 .167.133 0 .3 0c.167 0 .3.166.3.372v74.772c0 .206-.132.372-.3.372z"/><path d="M98.991.238H.111c-.062 0-.11-.135-.11-.3 0-.166.048-.3.11-.3h98.88c.062 0 .111.134.111.3 0 .165-.049.3-.11.3z"/><path d="M51.585 35.033c-.167 0-.3-.056-.3-.125V.147c0-.069.133-.125.3-.125.168 0 .3.056.3.125v34.76c0 .07-.132.126-.3.126zm7.819 0c-.168 0-.3-.056-.3-.125V.147c0-.069.132-.125.3-.125.167 0 .3.056.3.125v34.76c0 .07-.133.126-.3.126zm7.819 0c-.168 0-.3-.056-.3-.125V.147c0-.069.132-.125.3-.125.167 0 .3.056.3.125v34.76c0 .07-.132.126-.3.126zm7.855 0c-.167 0-.3-.056-.3-.125V.147c0-.069.133-.125.3-.125.168 0 .3.056.3.125v34.76c.001.07-.131.126-.3.126zm7.782 0c-.167 0-.3-.053-.3-.119V.12c0-.066.133-.12.3-.12.168 0 .3.054.3.12v34.795c0 .065-.132.119-.3.119zm7.819 0c-.167 0-.3-.053-.3-.119V.12c0-.066.133-.12.3-.12.167 0 .3.054.3.12v34.795c0 .065-.133.119-.3.119zM43.73 75.272c-.168 0-.3-.055-.3-.124V38.773c0-.068.132-.124.3-.124.167 0 .3.056.3.124v36.375c0 .068-.133.124-.3.124zm7.855 0c-.167 0-.3-.055-.3-.124V38.773c0-.068.133-.124.3-.124.168 0 .3.056.3.124v36.375c0 .068-.132.124-.3.124zm7.819 0c-.168 0-.3-.055-.3-.124V38.773c0-.068.132-.124.3-.124.167 0 .3.056.3.124v36.375c0 .068-.133.124-.3.124zm7.819 0c-.168 0-.3-.055-.3-.124V38.773c0-.068.132-.124.3-.124.167 0 .3.056.3.124v36.375c0 .068-.132.124-.3.124zm7.855 0c-.167 0-.3-.055-.3-.124V38.773c0-.068.133-.124.3-.124.168 0 .3.056.3.124v36.375c.001.068-.131.124-.3.124z"/><path d="M74.896 56.64c-.308 0-.492-.232-.492-.456s.184-.455.492-.455c.22 0 .418.217.418.455 0 .239-.199.456-.418.456zm0-.89c-.295 0-.47.22-.47.434 0 .213.175.434.47.434.208 0 .398-.207.398-.434s-.19-.434-.398-.434z" fill="#f6eb13"/><path d="M43.73 35.033c-.168 0-.3-.056-.3-.125V.147c0-.069.132-.125.3-.125.167 0 .3.056.3.125v34.76c0 .07-.133.126-.3.126zm-4.034 0H.3c-.07 0-.123-.134-.123-.3 0-.165.054-.3.123-.3h39.396c.069 0 .123.134.123.3 0 .165-.054.3-.123.3z"/><path d="M39.57 38.887c.167 0 .3-.054.3-.12v-3.853c0-.065-.133-.119-.3-.119-.168 0-.3.053-.3.12v3.853c0 .065.132.119.3.119zm59.817 0c-.168 0-.3-.054-.3-.12V.12c0-.066.132-.12.3-.12.167 0 .3.054.3.12v38.649c0 .065-.133.119-.3.119z"/><path d="M99.142 35.033h-59.44c-.07 0-.126-.134-.126-.3 0-.165.055-.3.126-.3h59.44c.07 0 .126.134.126.3 0 .165-.055.3-.126.3zm.063 3.854H39.694c-.066 0-.118-.135-.118-.3 0-.166.052-.3.118-.3h59.511c.066 0 .118.134.118.3 0 .165-.052.3-.118.3zm-.035 36.569H.15c-.084 0-.15-.134-.15-.3 0-.165.066-.3.15-.3h99.02c.084 0 .15.134.15.3 0 .166-.065.3-.15.3z"/><path d="M82.726 38.83c-.167 0-.3.055-.3.123v36.103c0 .067.133.123.3.123.168 0 .3-.055.3-.123V38.953c0-.068-.132-.124-.3-.124zm8.098-.03c-.167 0-.3.056-.3.124v36.154c0 .068.133.123.3.123.168 0 .3-.055.3-.123V38.924c0-.068-.132-.123-.3-.123zm8.574-.297c-.167 0-.3.056-.3.125v36.514c0 .069.133.125.3.125.168 0 .3-.056.3-.125V38.628c0-.069-.132-.125-.3-.125z"/></svg>