<svg xmlns="http://www.w3.org/2000/svg" width="145.05" height="145.05" viewBox="0 0 38.378 38.378" preserveAspectRatio="none"><path d="M37.313 37.75l-32.1-17.777c-.057-.031-.038-.16.04-.29.078-.13.185-.21.24-.18L37.596 37.28c.056.031.037.16-.04.29-.079.13-.186.21-.242.18z"/><path d="M37.467 37.9L19.652 5.42c-.03-.058.05-.166.18-.245.128-.079.258-.098.29-.04l17.816 32.478c.03.056-.05.165-.18.244-.128.078-.26.098-.29.041z"/><path d="M38.074.304a37.769 37.769 0 0 0-37.77 37.77h37.77z" fill="none" stroke="#000" stroke-width=".609" stroke-miterlimit="10"/></svg>