<svg xmlns="http://www.w3.org/2000/svg" width="147.245" height="147.245" viewBox="0 0 38.959 38.959" preserveAspectRatio="none"><path d="M38.384 38.68L.284 17.565c-.068-.037-.045-.19.047-.345.093-.153.22-.25.286-.212l38.101 21.113c.067.037.045.19-.047.345-.093.153-.221.25-.287.212z"/><path d="M38.062 38.615L18.39.676c-.034-.067.055-.193.198-.286.142-.092.286-.114.32-.047L38.582 38.28c.034.066-.055.193-.198.285-.142.092-.287.114-.32.048z"/><path fill="none" stroke="#000" stroke-width=".59" stroke-miterlimit="10" d="M.295.295h38.369v38.369H.295z"/></svg>