<svg xmlns="http://www.w3.org/2000/svg" width="286.454" height="285.993" viewBox="0 0 75.791001 75.668999" preserveAspectRatio="none"><path d="M38.01.192A37.582 37.535 0 0 0 5.462 18.959a37.582 37.535 0 0 0 0 37.535A37.582 37.535 0 0 0 38.009 75.26V37.727z" fill="none" stroke="#000" stroke-width=".599"/><path d="M37.982 36.148H.294c-.065 0-.117.134-.117.3 0 .165.052.3.117.3h37.688c.065 0 .117-.134.117-.3 0-.165-.052-.3-.117-.3z"/><path d="M37.967 36.899L5.475 18.798c-.057-.032-.038-.164.041-.296.079-.131.188-.214.244-.182l32.492 18.101c.057.032.038.164-.04.296-.08.131-.189.214-.245.182z"/><path d="M37.976 36.9L20.418 4.674c-.03-.057.049-.164.177-.243.127-.078.255-.097.286-.04L38.44 36.615c.03.056-.049.164-.177.242-.127.078-.256.097-.286.041z"/><path d="M37.764 36.542L18.79 70.155c-.033.058-.179.035-.327-.051-.147-.086-.242-.202-.209-.26L37.228 36.23c.033-.058.179-.036.327.05.148.086.242.203.21.261z"/><path d="M37.806 36.647L4.549 55.746c-.058.033-.184-.074-.283-.24-.099-.164-.134-.325-.076-.358l33.257-19.099c.058-.033.184.075.283.24.1.164.134.325.076.358z"/><path d="M38.023.2a37.597 37.528 0 0 1 32.56 18.765 37.597 37.528 0 0 1 0 37.528 37.597 37.528 0 0 1-32.56 18.764V37.729z" fill="none" stroke="#000" stroke-width=".599"/><path d="M38.059 36.173h37.687c.066 0 .118.135.118.3 0 .165-.052.3-.118.3H38.059c-.066 0-.118-.134-.118-.3 0-.165.052-.3.118-.3z"/><path d="M38.067 36.873l31.838-17.737c.055-.031.036-.16-.041-.29-.077-.128-.184-.21-.24-.178L37.788 36.405c-.055.03-.037.16.04.289.078.129.184.21.24.179z"/><path d="M38.064 36.873L55.622 4.648c.03-.056-.049-.164-.177-.242-.127-.078-.255-.098-.286-.041L37.601 36.589c-.03.056.049.164.177.243.127.078.256.097.286.04z"/><path d="M38.276 36.518L57.251 70.13c.033.059.179.036.327-.05.148-.086.242-.203.21-.261L38.811 36.207c-.033-.059-.179-.036-.327.05-.148.086-.242.202-.209.261z"/><path d="M38.234 36.623L71.491 55.72c.058.034.184-.074.283-.24.1-.164.134-.324.076-.358L38.593 36.025c-.058-.033-.184.074-.283.24-.099.164-.134.325-.076.358z"/></svg>