<svg xmlns="http://www.w3.org/2000/svg" width="263.977" height="268.029" viewBox="0 0 69.844002 70.916" preserveAspectRatio="none"><path d="M69.314 70.387H.53V.53h68.785v69.857" fill="#fff"/><path d="M69.314 70.387H.53V.53h68.785z" fill="none" stroke="#231f20" stroke-width="1.058" stroke-miterlimit="10"/><path d="M32.892 21.653c0 6.248-5.063 11.31-11.31 11.31-6.245 0-11.308-5.062-11.308-11.31 0-6.247 5.063-11.31 11.309-11.31 6.246 0 11.309 5.063 11.309 11.31" fill="#fff"/><path d="M32.892 21.653c0 6.248-5.063 11.31-11.31 11.31-6.245 0-11.308-5.062-11.308-11.31 0-6.247 5.063-11.31 11.309-11.31 6.246 0 11.309 5.063 11.309 11.31z" fill="none" stroke="#231f20" stroke-width="1.058" stroke-miterlimit="10"/><path d="M28.499 50.733a6.915 6.915 0 1 1-13.83 0 6.916 6.916 0 0 1 13.83 0" fill="#fff"/><path d="M28.499 50.733a6.915 6.915 0 1 1-13.83 0 6.916 6.916 0 0 1 13.83 0z" fill="none" stroke="#231f20" stroke-width="1.058" stroke-miterlimit="10"/><path d="M38.781 46.341c0-6.248 5.07-11.31 11.313-11.31 6.244 0 11.308 5.062 11.308 11.31 0 6.244-5.064 11.31-11.308 11.31s-11.313-5.066-11.313-11.31" fill="#fff"/><path d="M38.781 46.341c0-6.248 5.07-11.31 11.313-11.31 6.244 0 11.308 5.062 11.308 11.31 0 6.244-5.064 11.31-11.308 11.31s-11.313-5.066-11.313-11.31z" fill="none" stroke="#231f20" stroke-width="1.058" stroke-miterlimit="10"/><path d="M43.181 17.256a6.914 6.914 0 0 1 6.914-6.914 6.918 6.918 0 0 1 6.92 6.914 6.919 6.919 0 0 1-6.92 6.918 6.914 6.914 0 0 1-6.914-6.918" fill="#fff"/><path d="M43.181 17.256a6.914 6.914 0 0 1 6.914-6.914 6.918 6.918 0 0 1 6.92 6.914 6.919 6.919 0 0 1-6.92 6.918 6.914 6.914 0 0 1-6.914-6.918z" fill="none" stroke="#231f20" stroke-width="1.058" stroke-miterlimit="10"/></svg>