<svg xmlns="http://www.w3.org/2000/svg" width="209.3mm" height="547.317" viewBox="0 0 84 58" preserveAspectRatio="none"><path d="M47.654.605H83.19v56.866H47.654z" fill="#fff"/><path d="M47.654.605H83.19v56.866H47.654z" stroke-miterlimit="10" fill="none" stroke="#231f20" stroke-width="1.058"/><path d="M33.106 6.62C15.114 6.62.529 16.656.529 29.04c0 12.382 14.586 22.418 32.578 22.418h14.548V7.168L33.107 6.62" fill="#fff"/><path d="M33.106 6.62C15.114 6.62.529 16.656.529 29.04c0 12.382 14.586 22.418 32.578 22.418h14.548V7.168z" stroke-miterlimit="10" fill="none" stroke="#231f20" stroke-width="1.058"/><path d="M31.075 11.669c-13.937 0-25.236 7.772-25.236 17.366s11.299 17.367 25.236 17.367h16.58V12.095l-16.58-.426" fill="#fff"/><path d="M31.075 11.669c-13.937 0-25.236 7.772-25.236 17.366s11.299 17.367 25.236 17.367h16.58V12.095z" stroke-miterlimit="10" fill="none" stroke="#231f20" stroke-width="1.058"/></svg>