<svg xmlns="http://www.w3.org/2000/svg" width="453.768" height="433.098" viewBox="0 0 48.184 45.896" preserveAspectRatio="none"><path d="M33.106.529C15.114.529.529 10.565.529 22.949c0 12.382 14.586 22.418 32.578 22.418h14.548V1.077L33.107.529" fill="#fff"/><path d="M33.106.529C15.114.529.529 10.565.529 22.949c0 12.382 14.586 22.418 32.578 22.418h14.548V.653z" stroke-miterlimit="10" fill="none" stroke="#231f20" stroke-width="1.058"/><path d="M31.075 5.578c-13.937 0-25.236 7.772-25.236 17.366s11.299 17.367 25.236 17.367l10.972-.29.29-34.21-11.262-.233" fill="#fff"/><path d="M31.075 5.578c-13.937 0-25.236 7.772-25.236 17.366s11.299 17.367 25.236 17.367l10.972-.29.29-34.21z" stroke-miterlimit="10" fill="none" stroke="#231f20" stroke-width="1.058"/><ellipse cx="17.792" cy="21.675" rx="2.417" ry="2.412" fill="none" stroke="#000" stroke-width="1.05" stroke-miterlimit="10"/></svg>